<svg width="670" height="542" viewBox="0 0 670 542" fill="none" xmlns="http://www.w3.org/2000/svg">
<path fill-rule="evenodd" clip-rule="evenodd" d="M127.468 441.592C111.386 458.132 80.8398 455.185 80.8606 480.748C80.8779 503.419 106.348 514.021 124.48 520.638C184.115 542.396 232.57 549.731 290.632 527.683C330.735 512.463 542.587 389.091 571.929 369.615C612.355 342.773 522.278 317.348 470.88 308.824C395.658 296.345 127.468 441.592 127.468 441.592Z" fill="#FA7564"/>
<path fill-rule="evenodd" clip-rule="evenodd" d="M440.686 202.263C467.481 167.598 457.185 136.586 452.515 98.5121C449.689 75.4823 447.1 34.3271 422.025 19.3795C398.679 5.45551 359.772 6.15515 337.792 16.3707C274.049 46.0109 169.113 111.202 116.917 154.163C71.3983 191.624 78.4116 239.293 87.7406 287.493C92.0464 309.73 116.584 349.641 147.882 353.022C182.339 356.747 410.491 241.319 440.686 202.263Z" fill="#02ECF1"/>
<path fill-rule="evenodd" clip-rule="evenodd" d="M446.479 261.121H493.655V200.487H446.479V261.121Z" fill="#02ECF1"/>
<path fill-rule="evenodd" clip-rule="evenodd" d="M456.331 207.538L457.089 207.217C457.367 207.104 457.61 207.012 457.833 206.933C458.403 207.382 458.31 207.445 458.46 207.972L452.251 210.798V210.814L454.93 212.031C456.267 212.643 457.439 213.184 458.453 213.626C458.302 214.173 458.425 214.216 457.824 214.686C457.489 214.573 457.189 214.445 456.924 214.323C455.152 213.519 452.865 212.494 450.042 211.198V210.778C450.042 210.728 450.135 210.664 450.335 210.578C450.257 210.606 450.185 210.628 450.115 210.656V210.565C450.115 210.479 450.128 210.387 450.235 210.322L456.331 207.538Z" fill="white"/>
<path fill-rule="evenodd" clip-rule="evenodd" d="M456.331 247.846L457.089 247.525C457.367 247.412 457.61 247.32 457.833 247.241C458.403 247.69 458.31 247.753 458.46 248.28L452.251 251.107V251.122L454.93 252.339C456.267 252.951 457.439 253.492 458.453 253.934C458.302 254.481 458.425 254.524 457.824 254.994C457.489 254.88 457.189 254.752 456.924 254.63C455.152 253.826 452.865 252.802 450.042 251.506V251.085C450.042 251.036 450.135 250.972 450.335 250.886C450.257 250.914 450.185 250.936 450.115 250.965V250.873C450.115 250.787 450.128 250.694 450.235 250.629L456.331 247.846Z" fill="white"/>
<path fill-rule="evenodd" clip-rule="evenodd" d="M464.881 211.824H489.029V209.292H464.881V211.824Z" fill="white"/>
<path fill-rule="evenodd" clip-rule="evenodd" d="M470.274 220.688H489.029V218.155H470.274V220.688Z" fill="white"/>
<path fill-rule="evenodd" clip-rule="evenodd" d="M478.748 228.286H489.029V225.753H478.748V228.286Z" fill="white"/>
<path fill-rule="evenodd" clip-rule="evenodd" d="M464.881 252.133H489.029V249.6H464.881V252.133Z" fill="white"/>
<path fill-rule="evenodd" clip-rule="evenodd" d="M470.274 243.27H489.029V240.737H470.274V243.27Z" fill="white"/>
<path fill-rule="evenodd" clip-rule="evenodd" d="M478.748 235.672H489.029V233.139H478.748V235.672Z" fill="white"/>
<path fill-rule="evenodd" clip-rule="evenodd" d="M461.808 246.705L459.292 255.728L461.099 255.872L463.614 246.849L461.808 246.705Z" fill="white"/>
<path fill-rule="evenodd" clip-rule="evenodd" d="M478.1 267.625L479.048 275.651L484.723 290.329L479.533 291.919L475.543 276.61L475.021 267.979L478.1 267.625Z" fill="#250F8A"/>
<path fill-rule="evenodd" clip-rule="evenodd" d="M490.227 306.436L487.692 331.979L488.536 354.433H479.803L479.333 352.762L485.32 351.966L482.127 332.084L479.246 307.358L490.227 306.436Z" fill="white"/>
<path fill-rule="evenodd" clip-rule="evenodd" d="M493.111 306.15L495.098 327.908L508.469 345.604L506.873 353.954H502.881L505.275 352.165L505.675 346.797L492.903 332.482L481.328 306.834L493.111 306.15Z" fill="#E7EEFA"/>
<path fill-rule="evenodd" clip-rule="evenodd" d="M469.096 271.048L471.885 271.967C473.019 275.24 474.908 278.2 477.401 280.614L482.621 285.666L489.046 289.989L493.818 307.629L478.887 309.033L478.394 289.595L472.85 282.691C470.57 279.853 469.028 276.498 468.36 272.924L469.096 271.048Z" fill="#250F8A"/>
<path fill-rule="evenodd" clip-rule="evenodd" d="M472.177 272.936L468.505 274.234L466.134 261.84L466.847 260.788L472.177 272.936Z" fill="#FFD0D4"/>
<path fill-rule="evenodd" clip-rule="evenodd" d="M473.006 272.7L468.386 274.943C468.386 274.943 467.439 274.116 467.556 273.645C467.675 273.172 467.912 272.818 468.267 272.582C468.623 272.346 472.178 271.048 472.178 271.048L473.006 272.7Z" fill="#472BC7"/>
<path fill-rule="evenodd" clip-rule="evenodd" d="M475.02 267.979L474.784 261.369H477.39L478.1 267.625L475.02 267.979Z" fill="#FFD0D4"/>
<path fill-rule="evenodd" clip-rule="evenodd" d="M469.066 261.241C469.031 261.217 467.397 260.322 467.362 260.207C467.327 260.09 466.172 257.312 466.172 257.312L464.509 257.545L464.983 262.109L467.273 262.659L469.066 261.241Z" fill="#FFD0D4"/>
<path fill-rule="evenodd" clip-rule="evenodd" d="M493.032 282.24C491.918 284.782 488.312 287.397 485.76 286.288C483.209 285.178 482.68 280.766 483.792 278.224C484.905 275.681 487.876 274.52 490.428 275.629C492.979 276.738 494.145 279.698 493.032 282.24Z" fill="#FFD0D4"/>
<path fill-rule="evenodd" clip-rule="evenodd" d="M485.425 276.673C484.983 276.36 484.524 276.071 484.051 275.808C483.71 275.619 483.175 275.504 483.024 275.86C482.95 276.038 483.027 276.238 483.105 276.414C483.363 277.001 483.646 277.619 484.174 277.986C484.619 278.295 485.211 278.383 485.727 278.215C486.193 278.065 486.648 277.712 486.696 277.233C486.229 277.143 485.816 276.949 485.425 276.673Z" fill="#FFD0D4"/>
<path fill-rule="evenodd" clip-rule="evenodd" d="M486.327 286.466C488.819 287.016 491.999 284.599 493.032 282.241C494.145 279.697 492.98 276.738 490.428 275.63C490.274 275.562 490.114 275.529 489.959 275.479C489.667 275.787 489.431 276.153 489.325 276.502C488.915 277.859 489.226 279.464 490.088 280.592C490.088 280.592 487.201 286.013 486.327 286.466Z" fill="black"/>
<path fill-rule="evenodd" clip-rule="evenodd" d="M490.425 281.405C490.796 281.599 491.082 281.931 491.26 282.307C491.841 283.518 490.464 284.707 489.289 284.55C488.91 284.5 488.551 284.347 488.219 284.155C487.934 283.988 487.655 283.773 487.527 283.468C487.404 283.172 487.443 282.827 487.577 282.537C487.711 282.247 487.933 282.005 488.172 281.793C488.718 281.309 489.753 281.057 490.425 281.405Z" fill="#FFD0D4"/>
<path fill-rule="evenodd" clip-rule="evenodd" d="M182.058 419.218H434.899V154.392H182.058V419.218Z" fill="#FFDA4F"/>
<path fill-rule="evenodd" clip-rule="evenodd" d="M175.574 419.218H428.415V154.392H175.574V419.218Z" fill="white"/>
<path fill-rule="evenodd" clip-rule="evenodd" d="M175.574 175.019H428.415V154.392H175.574V175.019Z" fill="#FFCA00"/>
<path fill-rule="evenodd" clip-rule="evenodd" d="M252.936 356.692C252.609 356.604 252.281 356.56 251.955 356.545C251.884 356.542 251.815 356.552 251.744 356.552C251.481 356.552 251.22 356.57 250.965 356.615C250.915 356.623 250.867 356.639 250.816 356.65C250.534 356.709 250.262 356.794 249.997 356.906C249.979 356.914 249.961 356.922 249.943 356.93C248.743 357.457 247.773 358.478 247.398 359.838C246.742 362.23 247.779 366.066 250.179 366.721C251.294 367.027 252.506 366.585 253.551 365.792C253.551 365.792 253.552 365.79 253.554 365.79C253.95 365.488 254.321 365.138 254.655 364.755C254.667 364.74 254.679 364.726 254.692 364.711C254.836 364.542 254.974 364.368 255.103 364.189C255.122 364.163 255.142 364.135 255.162 364.108C255.296 363.917 255.42 363.721 255.533 363.523C255.548 363.497 255.559 363.472 255.575 363.446C255.667 363.279 255.75 363.109 255.824 362.94C255.846 362.889 255.868 362.838 255.89 362.788C255.969 362.594 256.039 362.401 256.092 362.21C256.256 361.612 256.292 361.008 256.214 360.431C255.981 358.697 254.737 357.184 252.936 356.692Z" fill="#E5FDFD"/>
<path fill-rule="evenodd" clip-rule="evenodd" d="M242.437 341.592H262.742V341.594C262.742 342.466 263.283 343.211 264.047 343.52L255.435 367.937L246.739 367.243L241.357 342.781C241.861 342.546 242.25 342.118 242.437 341.592ZM238.91 342.263L238.737 342.288L241.868 368.977L244.303 393.933L246.371 419.218H249.996L250.952 393.651L253.325 393.551L254.851 419.218H259.017L260.655 393.24L260.306 370.017L266.917 342.635L266.648 342.597C266.814 342.299 266.917 341.961 266.917 341.595V341.592H282.328V296.58H223.813V341.592H238.516C238.605 341.843 238.739 342.067 238.91 342.263Z" fill="#E5FDFD"/>
<path fill-rule="evenodd" clip-rule="evenodd" d="M347.336 340.571L350.265 358.132H344.057L346.985 340.571H347.336ZM374.963 340.571L372.034 358.132H351.479L348.55 340.571H374.963ZM376.529 340.571L379.458 358.132H373.248L376.177 340.571H376.529ZM381.582 370.857H371.124L373.05 359.325H379.657L381.582 370.857ZM383.704 383.581H369.003L370.925 372.05H381.781L383.704 383.581ZM385.826 396.305H366.88L368.804 384.774H383.903L385.826 396.305ZM387.95 409.03H364.757L366.68 397.498H386.025L387.95 409.03ZM363.543 409.03H359.971L358.047 397.498H365.467L363.543 409.03ZM335.565 409.03L337.488 397.498H356.834L358.758 409.03H335.565ZM339.611 384.774H354.711L356.635 396.305H337.687L339.611 384.774ZM341.734 372.05H352.588L354.511 383.581H339.811L341.734 372.05ZM353.602 370.857L351.678 359.325H371.835L369.911 370.857H353.602ZM367.59 384.774L365.667 396.305H357.848L355.925 384.774H367.59ZM355.725 383.581L353.801 372.05H369.711L367.788 383.581H355.725ZM343.857 359.325H350.464L352.389 370.857H341.933L343.857 359.325ZM332.651 419.218H333.865L335.365 410.223H358.957L360.457 419.218H361.671L360.171 410.223H363.344L361.842 419.218H363.056L364.558 410.223H388.148L389.65 419.218H390.863L377.743 340.571H380.269V336.993H344.346V340.571H345.771L332.651 419.218Z" fill="black"/>
<path fill-rule="evenodd" clip-rule="evenodd" d="M517.061 256.699H564.538V136.664H517.061V256.699Z" fill="#FFCA00"/>
<path fill-rule="evenodd" clip-rule="evenodd" d="M528.238 142.705L528.998 142.384C529.275 142.271 529.518 142.179 529.74 142.1C530.311 142.549 530.218 142.612 530.368 143.139L524.159 145.965V145.981L526.837 147.198C528.175 147.81 529.347 148.351 530.361 148.793C530.21 149.34 530.333 149.383 529.733 149.853C529.397 149.739 529.097 149.611 528.832 149.49C527.06 148.685 524.773 147.661 521.95 146.365V145.945C521.95 145.895 522.043 145.831 522.243 145.746C522.165 145.773 522.092 145.795 522.023 145.823V145.732C522.023 145.646 522.036 145.553 522.144 145.488L528.238 142.705Z" fill="white"/>
<path fill-rule="evenodd" clip-rule="evenodd" d="M528.238 183.013L528.998 182.692C529.275 182.579 529.518 182.486 529.74 182.408C530.311 182.857 530.218 182.92 530.368 183.447L524.159 186.274V186.288L526.837 187.506C528.175 188.118 529.347 188.659 530.361 189.101C530.21 189.648 530.333 189.691 529.733 190.161C529.397 190.047 529.097 189.919 528.832 189.797C527.06 188.993 524.773 187.969 521.95 186.673V186.252C521.95 186.203 522.043 186.139 522.243 186.053C522.165 186.081 522.092 186.103 522.023 186.132V186.04C522.023 185.954 522.036 185.861 522.144 185.796L528.238 183.013Z" fill="white"/>
<path fill-rule="evenodd" clip-rule="evenodd" d="M536.79 146.991H560.938V144.459H536.79V146.991Z" fill="white"/>
<path fill-rule="evenodd" clip-rule="evenodd" d="M542.182 155.855H560.938V153.322H542.182V155.855Z" fill="white"/>
<path fill-rule="evenodd" clip-rule="evenodd" d="M550.655 163.453H560.938V160.92H550.655V163.453Z" fill="white"/>
<path fill-rule="evenodd" clip-rule="evenodd" d="M536.79 187.3H560.938V184.768H536.79V187.3Z" fill="white"/>
<path fill-rule="evenodd" clip-rule="evenodd" d="M542.182 178.436H560.938V175.903H542.182V178.436Z" fill="white"/>
<path fill-rule="evenodd" clip-rule="evenodd" d="M550.655 170.839H560.938V168.307H550.655V170.839Z" fill="white"/>
<path fill-rule="evenodd" clip-rule="evenodd" d="M533.716 181.872L531.201 190.895L533.008 191.039L535.522 182.016L533.716 181.872Z" fill="white"/>
<path fill-rule="evenodd" clip-rule="evenodd" d="M528.238 197.479L528.998 197.158C529.275 197.045 529.518 196.953 529.74 196.874C530.311 197.323 530.218 197.386 530.368 197.913L524.159 200.739V200.755L526.837 201.971C528.175 202.583 529.347 203.125 530.361 203.566C530.21 204.114 530.333 204.157 529.733 204.627C529.397 204.512 529.097 204.385 528.832 204.264C527.06 203.459 524.773 202.434 521.95 201.139V200.718C521.95 200.669 522.043 200.604 522.243 200.518C522.165 200.547 522.092 200.569 522.023 200.597V200.505C522.023 200.419 522.036 200.326 522.144 200.262L528.238 197.479Z" fill="white"/>
<path fill-rule="evenodd" clip-rule="evenodd" d="M528.238 237.787L528.998 237.466C529.275 237.353 529.518 237.26 529.74 237.182C530.311 237.631 530.218 237.694 530.368 238.221L524.159 241.047V241.062L526.837 242.279C528.175 242.891 529.347 243.433 530.361 243.874C530.21 244.422 530.333 244.465 529.733 244.935C529.397 244.82 529.097 244.693 528.832 244.571C527.06 243.767 524.773 242.742 521.95 241.446V241.026C521.95 240.977 522.043 240.912 522.243 240.827C522.165 240.855 522.092 240.877 522.023 240.905V240.813C522.023 240.727 522.036 240.634 522.144 240.57L528.238 237.787Z" fill="white"/>
<path fill-rule="evenodd" clip-rule="evenodd" d="M536.79 201.766H560.938V199.233H536.79V201.766Z" fill="white"/>
<path fill-rule="evenodd" clip-rule="evenodd" d="M542.182 210.629H560.938V208.097H542.182V210.629Z" fill="white"/>
<path fill-rule="evenodd" clip-rule="evenodd" d="M550.655 218.225H560.938V215.693H550.655V218.225Z" fill="white"/>
<path fill-rule="evenodd" clip-rule="evenodd" d="M536.79 242.073H560.938V239.541H536.79V242.073Z" fill="white"/>
<path fill-rule="evenodd" clip-rule="evenodd" d="M542.182 233.21H560.938V230.677H542.182V233.21Z" fill="white"/>
<path fill-rule="evenodd" clip-rule="evenodd" d="M550.655 225.612H560.938V223.079H550.655V225.612Z" fill="white"/>
<path fill-rule="evenodd" clip-rule="evenodd" d="M533.716 236.645L531.201 245.668L533.008 245.813L535.522 236.789L533.716 236.645Z" fill="white"/>
<path fill-rule="evenodd" clip-rule="evenodd" d="M205.851 353.522H264.367V308.509H205.851V353.522Z" fill="#02ECF1"/>
<path fill-rule="evenodd" clip-rule="evenodd" d="M363.335 433.873L347.436 338.572L348.617 338.376L364.515 433.678L363.335 433.873Z" fill="black"/>
<path fill-rule="evenodd" clip-rule="evenodd" d="M334.143 433.873L318.243 338.572L319.424 338.376L335.324 433.678L334.143 433.873Z" fill="black"/>
<path fill-rule="evenodd" clip-rule="evenodd" d="M322.221 359.325H351.674V358.133H322.221V359.325Z" fill="black"/>
<path fill-rule="evenodd" clip-rule="evenodd" d="M324.307 372.05H353.761V370.857H324.307V372.05Z" fill="black"/>
<path fill-rule="evenodd" clip-rule="evenodd" d="M326.393 384.774H355.845V383.581H326.393V384.774Z" fill="black"/>
<path fill-rule="evenodd" clip-rule="evenodd" d="M328.477 397.498H357.93V396.305H328.477V397.498Z" fill="black"/>
<path fill-rule="evenodd" clip-rule="evenodd" d="M330.562 410.223H360.015V409.03H330.562V410.223Z" fill="black"/>
<path fill-rule="evenodd" clip-rule="evenodd" d="M332.646 422.946H362.1V421.753H332.646V422.946Z" fill="black"/>
<path fill-rule="evenodd" clip-rule="evenodd" d="M302.66 433.873L301.48 433.678L317.378 338.376L318.56 338.572L302.66 433.873Z" fill="#525252"/>
<path fill-rule="evenodd" clip-rule="evenodd" d="M331.852 433.873L330.672 433.678L346.57 338.376L347.751 338.572L331.852 433.873Z" fill="#525252"/>
<path fill-rule="evenodd" clip-rule="evenodd" d="M314.32 359.325H343.772V358.133H314.32V359.325Z" fill="#525252"/>
<path fill-rule="evenodd" clip-rule="evenodd" d="M312.235 372.05H341.688V370.857H312.235V372.05Z" fill="#525252"/>
<path fill-rule="evenodd" clip-rule="evenodd" d="M310.149 384.774H339.602V383.581H310.149V384.774Z" fill="#525252"/>
<path fill-rule="evenodd" clip-rule="evenodd" d="M308.065 397.498H337.517V396.305H308.065V397.498Z" fill="#525252"/>
<path fill-rule="evenodd" clip-rule="evenodd" d="M305.979 410.223H335.432V409.03H305.979V410.223Z" fill="#525252"/>
<path fill-rule="evenodd" clip-rule="evenodd" d="M303.894 422.946H333.347V421.753H303.894V422.946Z" fill="#525252"/>
<path fill-rule="evenodd" clip-rule="evenodd" d="M315.588 340.571H351.509V336.993H315.588V340.571Z" fill="black"/>
<path fill-rule="evenodd" clip-rule="evenodd" d="M446.47 480.592L444.035 455.636L440.904 428.947L443.339 428.601L448.906 453.903L457.604 454.596L466.648 428.947L469.084 429.294L462.473 456.675L462.822 479.899L446.47 480.592Z" fill="#FFCA00"/>
<path fill-rule="evenodd" clip-rule="evenodd" d="M449.566 446.497C448.908 448.889 449.945 452.726 452.346 453.381C454.747 454.035 457.602 451.26 458.26 448.868C458.917 446.477 457.504 444.006 455.104 443.351C452.702 442.696 450.223 444.105 449.566 446.497Z" fill="#FFD0D4"/>
<path fill-rule="evenodd" clip-rule="evenodd" d="M452.775 445.116C452.284 444.983 451.597 444.645 451.335 444.186C451.31 444.143 451.3 444.101 451.285 444.059C452.352 443.292 453.734 442.979 455.102 443.352C457.504 444.006 458.917 446.478 458.259 448.869C457.79 450.576 456.199 452.473 454.454 453.184C454.486 452.701 454.604 452.224 454.727 451.755C455.225 449.863 455.78 447.988 456.389 446.13C455.159 445.886 453.95 445.546 452.775 445.116Z" fill="black"/>
<path fill-rule="evenodd" clip-rule="evenodd" d="M455.58 448.773C455.905 448.537 456.352 448.428 456.722 448.587C456.807 448.624 456.888 448.674 456.954 448.741C457.133 448.919 457.186 449.191 457.163 449.442C457.102 450.137 456.53 450.719 455.862 450.925C455.673 450.984 455.472 451.016 455.275 450.986C455.079 450.956 454.887 450.86 454.773 450.697C454.354 450.1 455.112 449.112 455.58 448.773Z" fill="#FFD0D4"/>
<path fill-rule="evenodd" clip-rule="evenodd" d="M462.822 479.899L460.407 518.176H457.75L455.493 480.21L453.119 480.31L451.669 519.112L449.617 519.065L446.471 480.592L446.007 475.851L462.763 476.069L462.822 479.899Z" fill="white"/>
<path fill-rule="evenodd" clip-rule="evenodd" d="M460.407 518.176L466.252 518.817L466.04 519.72H457.482L457.749 518.176H460.407Z" fill="#250F8A"/>
<path fill-rule="evenodd" clip-rule="evenodd" d="M451.668 519.112V520.199L443.64 520.502V519.501L449.617 519.065L451.668 519.112Z" fill="#250F8A"/>
<path fill-rule="evenodd" clip-rule="evenodd" d="M444.731 427.56C444.731 428.709 443.797 429.64 442.644 429.64C441.491 429.64 440.557 428.709 440.557 427.56C440.557 426.412 441.491 425.481 442.644 425.481C443.797 425.481 444.731 426.412 444.731 427.56Z" fill="#FFD0D4"/>
<path fill-rule="evenodd" clip-rule="evenodd" d="M469.083 428.253C469.083 429.402 468.149 430.333 466.996 430.333C465.843 430.333 464.909 429.402 464.909 428.253C464.909 427.105 465.843 426.174 466.996 426.174C468.149 426.174 469.083 427.105 469.083 428.253Z" fill="#FFD0D4"/>
<path fill-rule="evenodd" clip-rule="evenodd" d="M226.342 405.863L223.906 380.907L220.775 354.218L223.211 353.871L228.777 379.174L237.474 379.867L246.52 354.218L248.955 354.565L242.345 381.946L242.693 405.17L226.342 405.863Z" fill="#2D109F"/>
<path fill-rule="evenodd" clip-rule="evenodd" d="M224.602 352.831C224.602 353.98 223.668 354.911 222.515 354.911C221.362 354.911 220.428 353.98 220.428 352.831C220.428 351.683 221.362 350.752 222.515 350.752C223.668 350.752 224.602 351.683 224.602 352.831Z" fill="#FFD0D4"/>
<path fill-rule="evenodd" clip-rule="evenodd" d="M248.955 353.525C248.955 354.674 248.021 355.604 246.868 355.604C245.715 355.604 244.781 354.674 244.781 353.525C244.781 352.376 245.715 351.446 246.868 351.446C248.021 351.446 248.955 352.376 248.955 353.525Z" fill="#FFD0D4"/>
<path fill-rule="evenodd" clip-rule="evenodd" d="M237.141 376.118C237.161 376.092 237.181 376.064 237.199 376.038C237.334 375.846 237.459 375.65 237.571 375.452C237.587 375.427 237.598 375.401 237.613 375.376C237.705 375.208 237.788 375.039 237.862 374.87C237.885 374.819 237.907 374.769 237.928 374.719C238.007 374.524 238.078 374.331 238.131 374.139C238.295 373.541 238.33 372.939 238.253 372.36C238.201 371.981 238.086 371.621 237.944 371.272C237.655 370.566 237.203 369.931 236.598 369.448C236.46 369.339 236.302 369.25 236.15 369.156C236.041 369.088 235.942 369.008 235.826 368.95C235.559 368.815 235.274 368.704 234.974 368.623H234.972C234.645 368.533 234.318 368.489 233.994 368.475C233.923 368.471 233.854 368.482 233.782 368.482C233.518 368.482 233.258 368.499 233.003 368.544C232.953 368.554 232.904 368.568 232.855 368.58C232.572 368.638 232.301 368.724 232.036 368.836L231.982 368.86C230.781 369.385 229.81 370.409 229.436 371.769C228.78 374.159 229.817 377.997 232.218 378.652C233.333 378.956 234.543 378.516 235.589 377.722C235.59 377.721 235.592 377.72 235.593 377.719C235.988 377.418 236.36 377.067 236.692 376.686C236.706 376.67 236.718 376.655 236.731 376.639C236.876 376.471 237.012 376.296 237.141 376.118Z" fill="black"/>
<path fill-rule="evenodd" clip-rule="evenodd" d="M242.693 405.17L240.279 443.447H237.621L235.364 405.48L232.991 405.581L231.539 444.384L229.488 444.336L226.342 405.863L225.879 401.122L242.635 401.341L242.693 405.17Z" fill="#FFCA00"/>
<path fill-rule="evenodd" clip-rule="evenodd" d="M240.279 443.447L246.122 444.089L245.912 444.991H237.353L237.621 443.447H240.279Z" fill="#2D109F"/>
<path fill-rule="evenodd" clip-rule="evenodd" d="M231.539 444.384V445.47L223.512 445.773V444.773L229.489 444.336L231.539 444.384Z" fill="#2D109F"/>
<path fill-rule="evenodd" clip-rule="evenodd" d="M404.531 427.716H505.109V368.07H404.531V427.716Z" fill="white"/>
<path fill-rule="evenodd" clip-rule="evenodd" d="M454.861 419.89H499.73V375.605H454.861V419.89Z" fill="#250F8A"/>
<path fill-rule="evenodd" clip-rule="evenodd" d="M410.226 379.784H449.411V376.024H410.226V379.784Z" fill="#250F8A"/>
<path fill-rule="evenodd" clip-rule="evenodd" d="M410.226 388.974H449.411V385.215H410.226V388.974Z" fill="#250F8A"/>
<path fill-rule="evenodd" clip-rule="evenodd" d="M410.226 398.166H449.411V394.406H410.226V398.166Z" fill="#250F8A"/>
<path fill-rule="evenodd" clip-rule="evenodd" d="M410.226 407.358H449.411V403.597H410.226V407.358Z" fill="#250F8A"/>
<path fill-rule="evenodd" clip-rule="evenodd" d="M410.226 416.547H449.411V412.789H410.226V416.547Z" fill="#250F8A"/>
<path fill-rule="evenodd" clip-rule="evenodd" d="M332.223 261.059C332.67 261.412 333.146 261.763 333.692 261.897C333.69 262.045 333.669 262.188 333.68 262.339C333.89 265.104 336.427 268.759 339.202 268.551C339.402 268.537 339.596 268.498 339.788 268.445V268.444C340.54 268.239 341.216 267.758 341.789 267.118C341.807 267.097 341.826 267.081 341.843 267.06C341.934 266.955 342.021 266.846 342.106 266.733C342.134 266.696 342.163 266.661 342.19 266.624C342.268 266.519 342.339 266.41 342.411 266.3C342.445 266.25 342.477 266.2 342.51 266.149C342.574 266.044 342.635 265.938 342.695 265.83C342.73 265.768 342.765 265.706 342.797 265.644C342.851 265.54 342.902 265.436 342.951 265.329C342.985 265.258 343.018 265.185 343.051 265.112C343.094 265.012 343.136 264.911 343.176 264.809C343.209 264.727 343.239 264.645 343.269 264.562C343.303 264.466 343.337 264.369 343.368 264.271C343.397 264.181 343.423 264.091 343.448 264C343.473 263.909 343.5 263.818 343.524 263.725C343.548 263.627 343.568 263.53 343.587 263.433C343.605 263.347 343.624 263.262 343.64 263.176C343.658 263.071 343.671 262.967 343.684 262.862C343.695 262.786 343.707 262.708 343.715 262.632C343.726 262.515 343.731 262.401 343.737 262.287C343.739 262.225 343.745 262.161 343.746 262.1C343.748 262.03 343.744 261.964 343.742 261.896C344.113 262.058 344.52 262.153 344.95 262.153C346.603 262.153 347.943 260.818 347.943 259.17C347.943 257.523 346.603 256.188 344.95 256.188C343.612 256.188 342.493 257.068 342.11 258.276C342.069 258.237 342.035 258.192 341.995 258.156C341.749 257.946 341.485 257.76 341.204 257.6C340.642 257.281 340.015 257.066 339.35 256.981C339.018 256.938 338.677 256.929 338.331 256.955C336.319 257.105 334.687 258.419 334.011 260.177C333.6 260.134 333.189 260.092 332.775 260.083C332.387 260.075 331.859 260.221 331.893 260.608C331.909 260.799 332.073 260.939 332.223 261.059Z" fill="#E5FDFD"/>
<path fill-rule="evenodd" clip-rule="evenodd" d="M316.67 258.945L319.114 261.427C318.212 260.775 317.368 260.141 316.614 259.557L316.67 258.945ZM383.196 301.016L367.139 301.743L356.107 283.819L356.339 283.667L343.843 270.294L341.111 270L324.447 261.78L318.446 256.343L316.74 258.204L320.208 220.802L270.259 216.202C270.452 215.751 270.559 215.255 270.559 214.734C270.559 212.864 269.184 211.325 267.388 211.038V135.604H266.191V211.038C264.395 211.325 263.02 212.864 263.02 214.734C263.02 215.013 263.055 215.282 263.113 215.545L219.953 211.571L215.178 263.045L315.433 272.275L316.22 263.807C319.568 266.912 323.898 270.429 326.102 271.383L334.243 274.906L343.616 291.539L343.553 291.578L343.703 291.696L343.795 291.86L343.861 291.818L344.163 292.053L346.793 314.63L349.986 334.511L343.999 335.307L344.469 336.981H353.203L352.358 314.524L353.84 299.586L364.707 308.045L382.537 303.974L384.264 308.478L385.66 307.882L383.196 301.016Z" fill="#E5FDFD"/>
<path fill-rule="evenodd" clip-rule="evenodd" d="M191.229 263.045L291.484 272.275L296.26 220.802L196.004 211.571L191.229 263.045Z" fill="#02ECF1"/>
<path fill-rule="evenodd" clip-rule="evenodd" d="M294.497 256.343L300.497 261.781L320.278 271.537L311.577 273.741L298.483 264.796L292.406 258.623L294.497 256.343Z" fill="#FF7E6E"/>
<path fill-rule="evenodd" clip-rule="evenodd" d="M319.785 261.587C319.993 264.352 318.03 268.345 315.254 268.551C312.478 268.76 309.94 265.104 309.732 262.339C309.523 259.573 311.604 257.163 314.381 256.955C317.156 256.747 319.576 258.822 319.785 261.587Z" fill="#FFD0D4"/>
<path fill-rule="evenodd" clip-rule="evenodd" d="M290.267 255.331C290.245 255.334 289.41 254.903 289.41 254.903L288.603 256.221L284.506 253.931L283.146 255.44L288.925 259.789L290.185 258.215L289.529 257.325L289.797 256.35L290.267 255.331Z" fill="#FFD0D4"/>
<path fill-rule="evenodd" clip-rule="evenodd" d="M330.944 288.982L328.408 314.525L329.253 336.98H320.52L320.05 335.306L326.037 334.512L322.844 314.629L319.964 289.904L330.944 288.982Z" fill="#250F8A"/>
<path fill-rule="evenodd" clip-rule="evenodd" d="M290.264 257.569C292.802 259.933 301.867 266.455 305.203 267.427L312.186 269.464L319.895 270.294L332.389 283.667L319.847 291.86L310.293 274.906L302.154 271.383C298.807 269.935 290.557 262.581 288.289 259.733L290.264 257.569Z" fill="#FA7564"/>
<path fill-rule="evenodd" clip-rule="evenodd" d="M310.448 260.207C309.91 260.137 309.369 260.095 308.827 260.083C308.437 260.075 307.909 260.221 307.944 260.608C307.961 260.799 308.124 260.94 308.275 261.059C308.779 261.459 309.319 261.872 309.958 261.951C310.497 262.018 311.062 261.819 311.439 261.43C311.779 261.08 312.018 260.555 311.834 260.111C311.378 260.248 310.923 260.27 310.448 260.207Z" fill="#FFD0D4"/>
<path fill-rule="evenodd" clip-rule="evenodd" d="M122.04 399.132H142.794C143.27 399.132 143.701 398.853 143.892 398.416C144.083 397.982 143.996 397.476 143.673 397.128L123.717 375.656L121.96 377.277L140.053 396.746H122.04V399.132Z" fill="#250F8A"/>
<path fill-rule="evenodd" clip-rule="evenodd" d="M315.839 268.445C318.3 267.771 319.977 264.153 319.785 261.587C319.576 258.822 317.156 256.747 314.381 256.955C314.213 256.967 314.058 257.013 313.896 257.041C313.783 257.45 313.745 257.883 313.816 258.24C314.09 259.631 315.117 260.905 316.408 261.501C316.408 261.501 316.4 267.636 315.839 268.445Z" fill="#FA7564"/>
<path fill-rule="evenodd" clip-rule="evenodd" d="M317.088 262.064C317.506 262.061 317.915 262.222 318.25 262.471C319.332 263.272 318.672 264.965 317.559 265.371C317.2 265.504 316.811 265.537 316.428 265.521C316.096 265.506 315.749 265.447 315.493 265.237C315.246 265.033 315.119 264.709 315.101 264.39C315.085 264.071 315.167 263.754 315.278 263.454C315.535 262.772 316.331 262.067 317.088 262.064Z" fill="#FFD0D4"/>
<path fill-rule="evenodd" clip-rule="evenodd" d="M359.247 301.017L343.191 301.743L332.002 283.567L319.604 291.578L340.759 308.045L358.587 303.974L360.315 308.478L361.712 307.882L359.247 301.017Z" fill="#472BC7"/>
<path fill-rule="evenodd" clip-rule="evenodd" d="M323.995 259.17C323.995 260.818 322.655 262.153 321.001 262.153C319.348 262.153 318.008 260.818 318.008 259.17C318.008 257.524 319.348 256.188 321.001 256.188C322.655 256.188 323.995 257.524 323.995 259.17Z" fill="#FA7564"/>
<path fill-rule="evenodd" clip-rule="evenodd" d="M123.366 406.401H142.004V155.09H123.366V406.401ZM120.971 408.788H144.398V152.704H120.971V408.788Z" fill="#250F8A"/>
<path fill-rule="evenodd" clip-rule="evenodd" d="M117.763 417.536H147.605V396.232H117.763V417.536Z" fill="#472BC7"/>
<path fill-rule="evenodd" clip-rule="evenodd" d="M122.04 310.963H142.794C143.27 310.963 143.701 310.683 143.892 310.247C144.083 309.813 143.996 309.307 143.673 308.959L123.717 287.488L121.96 289.108L140.053 308.577H122.04V310.963Z" fill="#250F8A"/>
<path fill-rule="evenodd" clip-rule="evenodd" d="M122.04 333.005H142.794C143.27 333.005 143.701 332.724 143.892 332.289C144.083 331.855 143.996 331.349 143.673 331.001L123.717 309.529L121.96 311.15L140.053 330.619H122.04V333.005Z" fill="#250F8A"/>
<path fill-rule="evenodd" clip-rule="evenodd" d="M122.04 355.047H142.794C143.27 355.047 143.701 354.767 143.892 354.332C144.083 353.897 143.996 353.392 143.673 353.043L123.717 331.572L121.96 333.193L140.053 352.661H122.04V355.047Z" fill="#250F8A"/>
<path fill-rule="evenodd" clip-rule="evenodd" d="M122.04 377.09H142.794C143.27 377.09 143.701 376.809 143.892 376.374C144.083 375.94 143.996 375.434 143.673 375.086L123.717 353.614L121.96 355.235L140.053 374.704H122.04V377.09Z" fill="#250F8A"/>
<path fill-rule="evenodd" clip-rule="evenodd" d="M122.04 289.45H142.794C143.27 289.45 143.701 289.169 143.892 288.734C144.083 288.3 143.996 287.794 143.673 287.447L123.717 265.974L121.96 267.594L140.053 287.064H122.04V289.45Z" fill="#250F8A"/>
<path fill-rule="evenodd" clip-rule="evenodd" d="M122.04 267.936H142.794C143.27 267.936 143.701 267.656 143.892 267.22C144.083 266.786 143.996 266.28 143.673 265.933L123.717 244.461L121.96 246.081L140.053 265.55H122.04V267.936Z" fill="#250F8A"/>
<path fill-rule="evenodd" clip-rule="evenodd" d="M122.04 246.424H142.794C143.27 246.424 143.701 246.143 143.892 245.708C144.083 245.274 143.996 244.768 143.673 244.421L123.717 222.948L121.96 224.568L140.053 244.038H122.04V246.424Z" fill="#250F8A"/>
<path fill-rule="evenodd" clip-rule="evenodd" d="M122.04 224.91H142.794C143.27 224.91 143.701 224.629 143.892 224.194C144.083 223.76 143.996 223.254 143.673 222.907L123.717 201.434L121.96 203.054L140.053 222.524H122.04V224.91Z" fill="#250F8A"/>
<path fill-rule="evenodd" clip-rule="evenodd" d="M122.04 203.397H142.794C143.27 203.397 143.701 203.116 143.892 202.681C144.083 202.247 143.996 201.741 143.673 201.394L123.717 179.921L121.96 181.541L140.053 201.011H122.04V203.397Z" fill="#250F8A"/>
<path fill-rule="evenodd" clip-rule="evenodd" d="M122.04 181.883H142.794C143.27 181.883 143.701 181.603 143.892 181.168C144.083 180.733 143.996 180.228 143.673 179.881L123.717 158.408L121.96 160.028L140.053 179.498H122.04V181.883Z" fill="#250F8A"/>
<path fill-rule="evenodd" clip-rule="evenodd" d="M122.04 160.37H142.794C143.27 160.37 143.701 160.09 143.892 159.655C144.083 159.22 143.996 158.715 143.673 158.367L123.717 136.895L121.96 138.515L140.053 157.984H122.04V160.37Z" fill="#0089C7"/>
<path fill-rule="evenodd" clip-rule="evenodd" d="M121.01 160.798H158.99V128.898H121.01V160.798Z" fill="#472BC7"/>
<path fill-rule="evenodd" clip-rule="evenodd" d="M63.9369 147.222H101.916V128.898H63.9369V147.222Z" fill="#472BC7"/>
<path fill-rule="evenodd" clip-rule="evenodd" d="M64.5669 131.229H252.154C252.815 131.229 253.351 130.694 253.351 130.036C253.351 129.377 252.815 128.843 252.154 128.843H64.5669C63.906 128.843 63.3696 129.377 63.3696 130.036C63.3696 130.694 63.906 131.229 64.5669 131.229Z" fill="#250F8A"/>
<path fill-rule="evenodd" clip-rule="evenodd" d="M242.242 213.144H243.439V135.604H242.242V213.144Z" fill="#472BC7"/>
<path fill-rule="evenodd" clip-rule="evenodd" d="M107.586 423.102H157.784V413.729H107.586V423.102Z" fill="#250F8A"/>
<path fill-rule="evenodd" clip-rule="evenodd" d="M139.86 130.917C140.014 130.917 140.167 130.858 140.284 130.743L150.286 120.777H241.987L251.39 130.146C251.625 130.379 252.003 130.379 252.238 130.146C252.471 129.912 252.471 129.535 252.238 129.302L242.483 119.584H149.79L139.437 129.898C139.203 130.132 139.203 130.509 139.437 130.743C139.554 130.858 139.707 130.917 139.86 130.917Z" fill="#250F8A"/>
<path fill-rule="evenodd" clip-rule="evenodd" d="M63.7677 130.917C63.9833 130.917 64.1916 130.8 64.2982 130.597L74.3081 111.546H98.5834L107.996 129.994C108.146 130.287 108.507 130.402 108.801 130.256C109.095 130.107 109.214 129.748 109.064 129.453L99.3174 110.353H73.5837L63.2385 130.043C63.084 130.336 63.1978 130.696 63.4911 130.849C63.5797 130.895 63.6743 130.917 63.7677 130.917Z" fill="#250F8A"/>
<path fill-rule="evenodd" clip-rule="evenodd" d="M238.451 135.603C238.451 138.019 240.417 139.978 242.841 139.978C245.265 139.978 247.231 138.019 247.231 135.603C247.231 133.188 245.265 131.229 242.841 131.229C240.417 131.229 238.451 133.188 238.451 135.603Z" fill="#472BC7"/>
<path fill-rule="evenodd" clip-rule="evenodd" d="M216.883 120.768C217.139 120.768 217.377 120.602 217.455 120.346C217.552 120.031 217.374 119.697 217.058 119.602L128.413 92.6726C128.278 92.6332 128.133 92.6392 128.005 92.694L85.992 110.36C85.6866 110.488 85.5442 110.837 85.6723 111.141C85.8016 111.446 86.1524 111.588 86.4566 111.459L128.271 93.8774L216.708 120.742C216.767 120.76 216.825 120.768 216.883 120.768Z" fill="#250F8A"/>
<path fill-rule="evenodd" clip-rule="evenodd" d="M142.185 130.996C142.326 130.996 142.47 130.971 142.61 130.918C143.229 130.684 143.539 129.996 143.304 129.379L129.345 92.7871C129.157 92.2909 128.665 91.9783 128.129 92.0224C127.597 92.0654 127.158 92.4543 127.052 92.9756L119.837 128.663C119.706 129.308 120.127 129.938 120.775 130.068C121.421 130.195 122.055 129.78 122.185 129.134L128.581 97.498L141.065 130.227C141.247 130.703 141.702 130.996 142.185 130.996Z" fill="#250F8A"/>
<path fill-rule="evenodd" clip-rule="evenodd" d="M125.814 93.2109C125.814 94.5386 126.894 95.6146 128.226 95.6146C129.559 95.6146 130.639 94.5386 130.639 93.2109C130.639 91.8831 129.559 90.8071 128.226 90.8071C126.894 90.8071 125.814 91.8831 125.814 93.2109Z" fill="#472BC7"/>
<path fill-rule="evenodd" clip-rule="evenodd" d="M229.504 131.03C229.636 131.03 229.769 130.987 229.88 130.898L241.637 121.43V130.282C241.637 130.612 241.905 130.879 242.236 130.879C242.567 130.879 242.834 130.612 242.834 130.282V120.181C242.834 119.95 242.702 119.742 242.494 119.643C242.287 119.542 242.039 119.571 241.86 119.717L229.127 129.97C228.87 130.177 228.83 130.553 229.038 130.808C229.156 130.955 229.329 131.03 229.504 131.03Z" fill="#250F8A"/>
<path fill-rule="evenodd" clip-rule="evenodd" d="M218.135 131.03C218.266 131.03 218.399 130.987 218.511 130.898L230.269 121.43V130.282C230.269 130.612 230.536 130.879 230.867 130.879C231.198 130.879 231.466 130.612 231.466 130.282V120.181C231.466 119.95 231.333 119.742 231.125 119.643C230.919 119.542 230.671 119.571 230.49 119.717L217.757 129.97C217.5 130.177 217.46 130.553 217.669 130.808C217.786 130.955 217.96 131.03 218.135 131.03Z" fill="#250F8A"/>
<path fill-rule="evenodd" clip-rule="evenodd" d="M206.765 131.03C206.897 131.03 207.029 130.987 207.141 130.898L218.899 121.43V130.282C218.899 130.612 219.166 130.879 219.498 130.879C219.828 130.879 220.096 130.612 220.096 130.282V120.181C220.096 119.95 219.963 119.742 219.755 119.643C219.549 119.542 219.301 119.571 219.12 119.717L206.388 129.97C206.13 130.177 206.091 130.553 206.299 130.808C206.416 130.955 206.59 131.03 206.765 131.03Z" fill="#250F8A"/>
<path fill-rule="evenodd" clip-rule="evenodd" d="M195.396 131.03C195.528 131.03 195.66 130.987 195.772 130.898L207.529 121.43V130.282C207.529 130.612 207.797 130.879 208.127 130.879C208.459 130.879 208.726 130.612 208.726 130.282V120.181C208.726 119.95 208.593 119.742 208.386 119.643C208.179 119.542 207.932 119.571 207.751 119.717L195.019 129.97C194.761 130.177 194.722 130.553 194.93 130.808C195.047 130.955 195.221 131.03 195.396 131.03Z" fill="#250F8A"/>
<path fill-rule="evenodd" clip-rule="evenodd" d="M184.026 131.03C184.158 131.03 184.291 130.987 184.402 130.898L196.16 121.43V130.282C196.16 130.612 196.427 130.879 196.759 130.879C197.089 130.879 197.357 130.612 197.357 130.282V120.181C197.357 119.95 197.225 119.742 197.016 119.643C196.809 119.542 196.562 119.571 196.382 119.717L183.649 129.97C183.391 130.177 183.352 130.553 183.56 130.808C183.678 130.955 183.851 131.03 184.026 131.03Z" fill="#250F8A"/>
<path fill-rule="evenodd" clip-rule="evenodd" d="M172.656 131.03C172.788 131.03 172.921 130.987 173.032 130.898L184.791 121.43V130.282C184.791 130.612 185.058 130.879 185.389 130.879C185.72 130.879 185.988 130.612 185.988 130.282V120.181C185.988 119.95 185.855 119.742 185.647 119.643C185.441 119.542 185.193 119.571 185.012 119.717L172.279 129.97C172.022 130.177 171.982 130.553 172.191 130.808C172.308 130.955 172.482 131.03 172.656 131.03Z" fill="#250F8A"/>
<path fill-rule="evenodd" clip-rule="evenodd" d="M161.287 131.03C161.419 131.03 161.552 130.987 161.663 130.898L173.421 121.43V130.282C173.421 130.612 173.688 130.879 174.02 130.879C174.351 130.879 174.619 130.612 174.619 130.282V120.181C174.619 119.95 174.486 119.742 174.278 119.643C174.072 119.542 173.824 119.571 173.643 119.717L160.91 129.97C160.653 130.177 160.613 130.553 160.822 130.808C160.939 130.955 161.113 131.03 161.287 131.03Z" fill="#250F8A"/>
<path fill-rule="evenodd" clip-rule="evenodd" d="M149.918 131.03C150.049 131.03 150.182 130.987 150.294 130.898L162.052 121.43V130.282C162.052 130.612 162.319 130.879 162.65 130.879C162.981 130.879 163.249 130.612 163.249 130.282V120.181C163.249 119.95 163.116 119.742 162.908 119.643C162.701 119.542 162.453 119.571 162.273 119.717L149.54 129.97C149.283 130.177 149.243 130.553 149.452 130.808C149.569 130.955 149.743 131.03 149.918 131.03Z" fill="#250F8A"/>
<path fill-rule="evenodd" clip-rule="evenodd" d="M82.704 131.03C82.874 131.03 83.0428 130.959 83.1614 130.819L98.4313 112.865V130.283C98.4313 130.612 98.6996 130.879 99.03 130.879C99.3617 130.879 99.6287 130.612 99.6287 130.283V111.239C99.6287 110.988 99.4718 110.764 99.2372 110.678C99.0001 110.591 98.7367 110.661 98.5738 110.852L82.2478 130.049C82.0335 130.299 82.0658 130.676 82.3172 130.889C82.4298 130.984 82.5675 131.03 82.704 131.03Z" fill="#250F8A"/>
<path fill-rule="evenodd" clip-rule="evenodd" d="M70.9596 131.031C71.1536 131.031 71.3439 130.936 71.4589 130.763L83.0949 113.223V130.283C83.0949 130.612 83.3619 130.879 83.6935 130.879C84.024 130.879 84.2922 130.612 84.2922 130.283V111.239C84.2922 110.975 84.1186 110.743 83.866 110.667C83.6097 110.593 83.3391 110.69 83.1942 110.91L70.4603 130.105C70.2783 130.38 70.3549 130.75 70.6303 130.932C70.7321 130.998 70.8458 131.031 70.9596 131.031Z" fill="#250F8A"/>
<path fill-rule="evenodd" clip-rule="evenodd" d="M239.071 214.734C239.071 216.809 240.759 218.49 242.84 218.49C244.922 218.49 246.611 216.809 246.611 214.734C246.611 212.66 244.922 210.979 242.84 210.979C240.759 210.979 239.071 212.66 239.071 214.734Z" fill="#472BC7"/>
<path fill-rule="evenodd" clip-rule="evenodd" d="M550.143 310.054L549.181 296.83L550.666 287.095L555.708 258.41L553.273 258.063L547.707 283.365L539.01 284.058L529.964 258.41L527.528 258.756L534.139 286.139L536.458 296.605L536.186 309.361L550.143 310.054Z" fill="white"/>
<path fill-rule="evenodd" clip-rule="evenodd" d="M537.982 276.764C537.982 279.244 540 282.673 542.489 282.673C544.978 282.673 546.995 279.244 546.995 276.764C546.995 274.284 544.978 272.274 542.489 272.274C540 272.274 537.982 274.284 537.982 276.764Z" fill="#FFD0D4"/>
<path fill-rule="evenodd" clip-rule="evenodd" d="M544.386 277.377C544.638 277.063 545.038 276.843 545.438 276.898C545.53 276.911 545.621 276.938 545.702 276.983C545.923 277.109 546.046 277.358 546.091 277.606C546.216 278.291 545.818 279.004 545.228 279.379C545.061 279.485 544.876 279.568 544.679 279.592C544.481 279.615 544.272 279.572 544.118 279.446C543.555 278.98 544.025 277.828 544.386 277.377Z" fill="#FFD0D4"/>
<path fill-rule="evenodd" clip-rule="evenodd" d="M544.383 277.128C544.485 277.177 544.603 277.223 544.707 277.181C544.813 277.141 544.868 277.029 544.937 276.939C545.208 276.587 545.802 276.587 546.117 276.9C546.433 277.212 546.464 277.746 546.246 278.131C546.027 278.517 545.599 278.758 545.159 278.823C544.869 279.852 544.75 280.928 544.807 281.996C545.524 282.048 546.241 282.101 546.957 282.153C547.097 282.164 547.251 282.17 547.361 282.085C547.464 282.004 547.501 281.867 547.528 281.739C547.797 280.516 547.929 279.262 547.927 278.008C547.925 276.786 547.779 275.521 547.146 274.475C546.388 273.223 543.281 271.163 541.764 272.318C540.095 273.591 543.226 276.574 544.383 277.128Z" fill="black"/>
<path fill-rule="evenodd" clip-rule="evenodd" d="M540.581 275.298C539.9 276.325 538.918 277.207 537.722 277.518C537.377 276.187 537.677 274.704 538.512 273.61C538.983 272.995 540.683 271.491 541.588 271.845C542.525 272.211 541.042 274.603 540.581 275.298Z" fill="black"/>
<path fill-rule="evenodd" clip-rule="evenodd" d="M549.634 300.674L536.329 300.053L526.093 345.729L521.344 342.848L527.125 349.844L540.755 312.195L540.547 329.27L549.789 341.469L550.379 345.872L550.623 347.744L552.271 347.55L552.57 340.839L545.417 329.25L550.464 310.067L549.634 300.674Z" fill="#250F8A"/>
<path fill-rule="evenodd" clip-rule="evenodd" d="M550.475 270.785L553.356 271.792L555.709 258.41L553.273 258.063L550.475 270.785Z" fill="#FFD0D4"/>
<path fill-rule="evenodd" clip-rule="evenodd" d="M533.699 269L530.322 270.328L527.529 258.757L529.964 258.41L533.699 269Z" fill="#FFD0D4"/>
<path fill-rule="evenodd" clip-rule="evenodd" d="M544.986 283.583L542.489 288L541.231 283.881L544.986 283.583Z" fill="#FFD0D4"/>
<path fill-rule="evenodd" clip-rule="evenodd" d="M526.439 257.023C526.439 258.172 527.374 259.103 528.527 259.103C529.68 259.103 530.614 258.172 530.614 257.023C530.614 255.875 529.68 254.944 528.527 254.944C527.374 254.944 526.439 255.875 526.439 257.023Z" fill="#FFD0D4"/>
<path fill-rule="evenodd" clip-rule="evenodd" d="M552.644 257.412C552.644 258.56 553.578 259.492 554.731 259.492C555.884 259.492 556.818 258.56 556.818 257.412C556.818 256.264 555.884 255.332 554.731 255.332C553.578 255.332 552.644 256.264 552.644 257.412Z" fill="#FFD0D4"/>
<path fill-rule="evenodd" clip-rule="evenodd" d="M399.304 171.147H336.4C334.237 171.147 332.469 169.359 332.469 167.174V164.362C332.469 162.177 334.237 160.389 336.4 160.389H399.304C401.466 160.389 403.233 162.177 403.233 164.362V167.174C403.233 169.359 401.466 171.147 399.304 171.147Z" fill="white"/>
<path fill-rule="evenodd" clip-rule="evenodd" d="M80.2531 476.844L80.2052 480.423L223.877 482.327L255 466.638L255.048 463.059L80.2531 476.844Z" fill="#FFCA00"/>
<path fill-rule="evenodd" clip-rule="evenodd" d="M223.876 482.327L80.2048 480.423L111.329 464.735L255.001 466.639L223.876 482.327Z" fill="#FFCA00"/>
<path fill-rule="evenodd" clip-rule="evenodd" d="M223.925 478.748L80.2543 476.844L111.377 461.156L255.049 463.06L223.925 478.748Z" fill="white"/>
<path fill-rule="evenodd" clip-rule="evenodd" d="M190.553 464.962L111.61 463.916L113.964 462.729L192.906 463.775L190.553 464.962Z" fill="#FA7564"/>
<path fill-rule="evenodd" clip-rule="evenodd" d="M184.669 467.926L105.726 466.881L108.08 465.694L187.023 466.741L184.669 467.926Z" fill="#FA7564"/>
<path fill-rule="evenodd" clip-rule="evenodd" d="M179.021 470.774L100.078 469.729L102.432 468.542L181.375 469.588L179.021 470.774Z" fill="#FA7564"/>
<path fill-rule="evenodd" clip-rule="evenodd" d="M173.608 473.503L94.6649 472.457L97.0189 471.27L175.962 472.316L173.608 473.503Z" fill="#FA7564"/>
<path fill-rule="evenodd" clip-rule="evenodd" d="M223.817 476.481L172.758 475.806L196.527 463.823L247.587 464.499L223.817 476.481Z" fill="#FA7564"/>
<path fill-rule="evenodd" clip-rule="evenodd" d="M104.675 511.804L104.627 515.382L248.297 517.286L279.421 501.597L279.469 498.018L104.675 511.804Z" fill="#2D109F"/>
<path fill-rule="evenodd" clip-rule="evenodd" d="M248.297 517.286L104.627 515.382L135.75 499.694L279.421 501.598L248.297 517.286Z" fill="#2D109F"/>
<path fill-rule="evenodd" clip-rule="evenodd" d="M248.345 513.707L104.675 511.803L135.798 496.115L279.469 498.019L248.345 513.707Z" fill="white"/>
<path fill-rule="evenodd" clip-rule="evenodd" d="M214.974 499.92L136.031 498.875L138.384 497.688L217.327 498.734L214.974 499.92Z" fill="#FA7564"/>
<path fill-rule="evenodd" clip-rule="evenodd" d="M209.091 502.886L130.147 501.841L132.501 500.654L211.443 501.7L209.091 502.886Z" fill="#FA7564"/>
<path fill-rule="evenodd" clip-rule="evenodd" d="M203.442 505.733L124.499 504.688L126.853 503.501L205.796 504.547L203.442 505.733Z" fill="#FA7564"/>
<path fill-rule="evenodd" clip-rule="evenodd" d="M198.03 508.462L119.086 507.416L121.44 506.229L200.382 507.275L198.03 508.462Z" fill="#FA7564"/>
<path fill-rule="evenodd" clip-rule="evenodd" d="M248.239 511.44L197.178 510.765L220.948 498.782L272.009 499.458L248.239 511.44Z" fill="#FA7564"/>
<path fill-rule="evenodd" clip-rule="evenodd" d="M330.382 199.723H420.184V190.18H330.382V199.723Z" fill="#E5FDFD"/>
<path fill-rule="evenodd" clip-rule="evenodd" d="M330.382 248.172H420.184V208.074H330.382V248.172Z" fill="#E5FDFD"/>
<path fill-rule="evenodd" clip-rule="evenodd" d="M310.271 459.156L314.403 465.597L318.422 477.941L330.594 497.424L328.733 497.93L314.236 481.779L307.159 468.148L310.271 459.156Z" fill="#E7F8FC"/>
<path fill-rule="evenodd" clip-rule="evenodd" d="M285.221 467.855L269.744 493.559L271.756 494.275L290.443 470.502L285.221 467.855Z" fill="#2D109F"/>
<path fill-rule="evenodd" clip-rule="evenodd" d="M278.536 462.482C281.242 462.937 284.622 465.808 284.177 468.575C283.733 471.343 279.631 472.956 276.925 472.501C274.22 472.047 272.387 469.435 272.831 466.668C273.276 463.902 275.831 462.027 278.536 462.482Z" fill="#FFD0D4"/>
<path fill-rule="evenodd" clip-rule="evenodd" d="M275.044 471.293C274.851 471.802 274.685 472.323 274.548 472.85C274.45 473.229 274.469 473.781 274.848 473.839C275.035 473.868 275.209 473.741 275.357 473.623C275.859 473.225 276.382 472.795 276.606 472.188C276.794 471.675 276.735 471.076 276.449 470.614C276.192 470.198 275.743 469.84 275.272 469.912C275.299 470.392 275.215 470.842 275.044 471.293Z" fill="#FFD0D4"/>
<path fill-rule="evenodd" clip-rule="evenodd" d="M284.21 467.976C284.133 465.407 281.047 462.904 278.536 462.482C275.83 462.027 273.276 463.901 272.832 466.668C272.805 466.835 272.812 466.997 272.802 467.163C273.168 467.371 273.575 467.511 273.935 467.527C275.336 467.59 276.797 466.887 277.67 465.767C277.67 465.767 283.564 467.236 284.21 467.976Z" fill="black"/>
<path fill-rule="evenodd" clip-rule="evenodd" d="M278.368 465.234C278.462 464.824 278.712 464.462 279.03 464.195C280.05 463.328 281.523 464.376 281.656 465.561C281.7 465.945 281.642 466.334 281.537 466.704C281.445 467.024 281.308 467.351 281.047 467.551C280.794 467.745 280.453 467.792 280.143 467.733C279.832 467.674 279.546 467.518 279.284 467.338C278.688 466.924 278.196 465.976 278.368 465.234Z" fill="#FFD0D4"/>
<path fill-rule="evenodd" clip-rule="evenodd" d="M283.675 481.469L274.177 498.338L276.344 498.508L288.507 485.9L290.173 469.713C290.173 469.713 290.173 464.771 288.007 465.112C285.84 465.454 284.841 468.179 284.841 468.179L283.675 481.469Z" fill="#1E0880"/>
<path fill-rule="evenodd" clip-rule="evenodd" d="M283.938 465.272C293.749 460.307 304.918 458.76 304.918 458.76L310.264 469.449L286.174 473.462L283.938 465.272Z" fill="#1E0880"/>
<path fill-rule="evenodd" clip-rule="evenodd" d="M304.918 458.759L306.414 458.706C310.453 458.564 313.801 461.877 313.795 466.01L305.833 480.739L307.283 501.916H305.117L300.391 481.919L304.918 458.759Z" fill="white"/>
<path fill-rule="evenodd" clip-rule="evenodd" d="M272.38 496.105C272.38 497.543 271.293 498.708 269.95 498.708C268.609 498.708 267.521 497.543 267.521 496.105C267.521 494.669 268.609 493.503 269.95 493.503C271.293 493.503 272.38 494.669 272.38 496.105Z" fill="#FFD0D4"/>
<path fill-rule="evenodd" clip-rule="evenodd" d="M277.902 498.711C277.902 500.148 276.815 501.314 275.473 501.314C274.132 501.314 273.043 500.148 273.043 498.711C273.043 497.274 274.132 496.109 275.473 496.109C276.815 496.109 277.902 497.274 277.902 498.711Z" fill="#FFD0D4"/>
<path fill-rule="evenodd" clip-rule="evenodd" d="M307.284 501.916L307.683 504.019L297.273 504.256C297.273 504.256 297.851 502.718 298.199 502.837C298.546 502.954 305.117 501.916 305.117 501.916H307.284Z" fill="#250F8A"/>
<path fill-rule="evenodd" clip-rule="evenodd" d="M329.534 498.073L330.556 500.427L321.161 500.666L321.392 499.484L327.701 498.585L329.534 498.073Z" fill="#250F8A"/>
<rect opacity="0.5" width="117.796" height="14.688" rx="7.34399" transform="matrix(0.867096 -0.498141 0.501861 0.864948 505.449 118.336)" fill="url(#paint0_linear_41_13)"/>
<rect opacity="0.5" width="117.796" height="14.688" rx="7.34399" transform="matrix(0.867096 -0.498141 0.501861 0.864948 560.489 400.972)" fill="url(#paint1_linear_41_13)"/>
<rect opacity="0.5" width="117.796" height="14.688" rx="7.34399" transform="matrix(0.867096 -0.498141 0.501861 0.864948 358.023 58.679)" fill="url(#paint2_linear_41_13)"/>
<rect opacity="0.3" width="98.163" height="19.9341" rx="9.96704" transform="matrix(0.867096 -0.498141 0.501861 0.864948 23.8558 271.878)" fill="url(#paint3_linear_41_13)"/>
<rect opacity="0.5" width="98.163" height="19.9341" rx="9.96704" transform="matrix(0.867096 -0.498141 0.501861 0.864948 0.267517 479.211)" fill="url(#paint4_linear_41_13)"/>
<defs>
<linearGradient id="paint0_linear_41_13" x1="117.796" y1="0" x2="0" y2="0" gradientUnits="userSpaceOnUse">
<stop stop-color="white" stop-opacity="0.01"/>
<stop offset="1" stop-color="#FFCA00"/>
<stop offset="1" stop-color="white"/>
</linearGradient>
<linearGradient id="paint1_linear_41_13" x1="117.796" y1="0" x2="0" y2="0" gradientUnits="userSpaceOnUse">
<stop stop-color="white" stop-opacity="0.01"/>
<stop offset="1" stop-color="#FA7564"/>
<stop offset="1" stop-color="white"/>
</linearGradient>
<linearGradient id="paint2_linear_41_13" x1="117.796" y1="0" x2="0" y2="0" gradientUnits="userSpaceOnUse">
<stop stop-color="white" stop-opacity="0.01"/>
<stop offset="1" stop-color="white"/>
<stop offset="1" stop-color="white"/>
</linearGradient>
<linearGradient id="paint3_linear_41_13" x1="98.163" y1="0" x2="0" y2="0" gradientUnits="userSpaceOnUse">
<stop stop-color="white" stop-opacity="0.01"/>
<stop offset="1" stop-color="#06CCE2"/>
<stop offset="1" stop-color="white"/>
</linearGradient>
<linearGradient id="paint4_linear_41_13" x1="98.163" y1="0" x2="0" y2="0" gradientUnits="userSpaceOnUse">
<stop stop-color="white" stop-opacity="0.01"/>
<stop offset="1" stop-color="#FA7564"/>
<stop offset="1" stop-color="white"/>
</linearGradient>
</defs>
</svg>
