<svg width="163" height="37" viewBox="0 0 163 37" fill="none" xmlns="http://www.w3.org/2000/svg">
<g clip-path="url(#clip0_0_3628)">
<path fill-rule="evenodd" clip-rule="evenodd" d="M37.9997 3.06239C37.0659 2.59024 35.9105 2.45109 34.6194 2.68757C33.8233 2.83396 32.9745 3.12352 32.0944 3.56511C31.2493 3.99061 30.4403 4.52389 29.6737 5.14244L32.7834 6.71574C33.5499 6.0972 34.359 5.56391 35.2031 5.13922C36.0833 4.69683 36.9311 4.40726 37.7281 4.26087C39.0193 4.02439 40.1746 4.16354 41.1084 4.6357L37.9997 3.06239Z" fill="#F0A72E"/>
<mask id="mask0_0_3628" style="mask-type:luminance" maskUnits="userSpaceOnUse" x="0" y="0" width="31" height="35">
<path fill-rule="evenodd" clip-rule="evenodd" d="M0 0.609169H30.0968V34.2347H0V0.609169Z" fill="white"/>
</mask>
<g mask="url(#mask0_0_3628)">
<path fill-rule="evenodd" clip-rule="evenodd" d="M26.988 1.17282C25.9093 0.626667 24.5729 0.466602 23.0804 0.74008C22.1587 0.908993 21.1769 1.2436 20.1583 1.75597C18.4635 2.60858 16.8722 3.84728 15.4924 5.31199C12.9535 8.00736 11.1304 11.4677 10.6889 14.6891C9.92699 14.8387 9.11056 15.1226 8.27288 15.5441C6.8118 16.2785 5.44031 17.345 4.25168 18.6063C1.70448 21.3064 -0.00965628 24.8971 -0.000420626 28.0228C0.00789147 30.3023 0.930534 31.9069 2.42025 32.6606L5.52897 34.2347C4.03833 33.4803 3.11569 31.8756 3.1083 29.5961C3.09814 26.4704 4.8132 22.8798 7.35948 20.1796C8.54903 18.9183 9.9196 17.8518 11.3816 17.1174C12.2184 16.6959 13.0357 16.412 13.7967 16.2624C14.2382 13.041 16.0622 9.58067 18.6011 6.8853C19.9809 5.42058 21.5713 4.18188 23.267 3.32928C24.2847 2.81691 25.2665 2.4823 26.1882 2.31338C27.6816 2.0391 29.0171 2.19997 30.0967 2.74612L26.988 1.17282Z" fill="#F0A72E"/>
</g>
<path fill-rule="evenodd" clip-rule="evenodd" d="M23.2668 3.32944C28.0748 0.911568 32.0702 2.44465 32.7832 6.71574C33.5497 6.0972 34.3588 5.56392 35.2029 5.13922C39.7857 2.83476 43.515 4.68557 43.5298 9.27115C43.5446 13.8575 39.8392 19.4462 35.2565 21.7506L11.4349 33.729C6.84575 36.0366 3.12285 34.1826 3.10808 29.5962C3.0933 25.0098 6.79126 19.4252 11.3805 17.1176C12.2191 16.6961 13.0355 16.4122 13.7965 16.2625C14.4781 11.2901 18.4513 5.75052 23.2668 3.32944Z" fill="#FFCA00"/>
<path fill-rule="evenodd" clip-rule="evenodd" d="M62.2794 5.31441C61.3456 4.84225 60.1903 4.7031 58.8991 4.93958C58.1021 5.08597 57.2543 5.37554 56.3732 5.81712C55.529 6.24182 54.72 6.77591 53.9534 7.39445L57.0621 8.96775C57.8287 8.34921 58.6378 7.81512 59.4828 7.39123C60.362 6.94804 61.2108 6.65928 62.0069 6.51288C63.299 6.27641 64.4534 6.41556 65.3872 6.88771L62.2794 5.31441Z" fill="#D43E3E"/>
<path fill-rule="evenodd" clip-rule="evenodd" d="M51.2633 3.41977C50.1845 2.87361 48.8481 2.71274 47.3556 2.98622C46.4339 3.15514 45.454 3.48974 44.4372 4.00131C42.748 4.8507 41.1613 6.08618 39.7843 7.54848C37.2435 10.2463 35.4167 13.713 34.9743 16.9376C34.2059 17.0905 33.396 17.3712 32.5518 17.7959C31.0926 18.5294 29.7229 19.596 28.5343 20.8564C25.9871 23.5566 24.2693 27.1488 24.2794 30.2745C24.2868 32.5532 25.2113 34.1563 26.7001 34.9108L29.8088 36.4833C28.3191 35.7296 27.3946 34.1265 27.3872 31.8478C27.3771 28.7221 29.0958 25.1299 31.6421 22.4297C32.8317 21.1685 34.2013 20.1027 35.6596 19.3692C36.5056 18.9445 37.3146 18.6638 38.083 18.5109C38.5254 15.2855 40.3522 11.8196 42.893 9.12179C44.27 7.65948 45.8567 6.42401 47.5459 5.57381C48.5618 5.06305 49.5427 4.72844 50.4634 4.55953C51.9569 4.28605 53.2923 4.44692 54.372 4.99307L51.2633 3.41977Z" fill="#D43E3E"/>
<path fill-rule="evenodd" clip-rule="evenodd" d="M47.5455 5.57397C52.3536 3.1569 56.3499 4.69643 57.062 8.96751C57.8285 8.34897 58.6376 7.81569 59.4826 7.39099C64.0654 5.08653 67.7938 6.93734 67.8086 11.5229C67.8234 16.1093 64.1189 21.6979 59.5362 24.0024L35.7137 35.9807C31.1319 38.2852 27.4026 36.4344 27.3878 31.848C27.373 27.2616 31.0774 21.673 35.6602 19.3685C36.5052 18.9446 37.3152 18.6639 38.0827 18.5103C38.7643 13.5386 42.7375 7.99184 47.5455 5.57397Z" fill="#FA7564"/>
<path d="M81.3945 26V12.92H84.0145L86.3345 19.32C86.4812 19.7333 86.6212 20.16 86.7545 20.6C86.8879 21.0267 87.0279 21.4533 87.1745 21.88H87.2545C87.4012 21.4533 87.5345 21.0267 87.6545 20.6C87.7879 20.16 87.9279 19.7333 88.0745 19.32L90.3345 12.92H92.9745V26H90.8345V20.02C90.8345 19.7133 90.8412 19.38 90.8545 19.02C90.8812 18.66 90.9079 18.3 90.9345 17.94C90.9612 17.5667 90.9945 17.2067 91.0345 16.86C91.0745 16.5 91.1079 16.1667 91.1345 15.86H91.0545L89.9945 18.9L87.8545 24.78H86.4745L84.3145 18.9L83.2745 15.86H83.1945C83.2212 16.1667 83.2479 16.5 83.2745 16.86C83.3145 17.2067 83.3479 17.5667 83.3745 17.94C83.4145 18.3 83.4412 18.66 83.4545 19.02C83.4812 19.38 83.4945 19.7133 83.4945 20.02V26H81.3945ZM98.1271 26.24C97.2604 26.24 96.5604 25.98 96.0271 25.46C95.4937 24.9267 95.2271 24.2267 95.2271 23.36C95.2271 22.84 95.3337 22.38 95.5471 21.98C95.7737 21.5667 96.1204 21.2133 96.5871 20.92C97.0671 20.6267 97.6671 20.38 98.3871 20.18C99.1204 19.98 99.9937 19.8267 101.007 19.72C100.994 19.4667 100.954 19.2267 100.887 19C100.834 18.76 100.734 18.5533 100.587 18.38C100.454 18.1933 100.274 18.0533 100.047 17.96C99.8204 17.8533 99.5404 17.8 99.2071 17.8C98.7271 17.8 98.2537 17.8933 97.7871 18.08C97.3337 18.2667 96.8871 18.4933 96.4471 18.76L95.6071 17.22C96.1537 16.8733 96.7671 16.5733 97.4471 16.32C98.1271 16.0667 98.8604 15.94 99.6471 15.94C100.874 15.94 101.787 16.3067 102.387 17.04C103 17.76 103.307 18.8067 103.307 20.18V26H101.407L101.247 24.92H101.167C100.727 25.2933 100.254 25.6067 99.7471 25.86C99.2537 26.1133 98.7137 26.24 98.1271 26.24ZM98.8671 24.44C99.2671 24.44 99.6271 24.3467 99.9471 24.16C100.28 23.9733 100.634 23.7067 101.007 23.36V21.16C100.34 21.24 99.7804 21.3467 99.3271 21.48C98.8737 21.6133 98.5071 21.7667 98.2271 21.94C97.9471 22.1 97.7471 22.2867 97.6271 22.5C97.5071 22.7133 97.4471 22.94 97.4471 23.18C97.4471 23.62 97.5804 23.94 97.8471 24.14C98.1137 24.34 98.4537 24.44 98.8671 24.44ZM105.71 26V16.18H107.61L107.77 17.92H107.85C108.196 17.28 108.616 16.7933 109.11 16.46C109.603 16.1133 110.11 15.94 110.63 15.94C111.096 15.94 111.47 16.0067 111.75 16.14L111.35 18.14C111.176 18.0867 111.016 18.0467 110.87 18.02C110.723 17.9933 110.543 17.98 110.33 17.98C109.943 17.98 109.536 18.1333 109.11 18.44C108.683 18.7333 108.316 19.2533 108.01 20V26H105.71ZM116.281 26.24C115.708 26.24 115.221 26.1533 114.821 25.98C114.434 25.8067 114.114 25.5667 113.861 25.26C113.621 24.94 113.441 24.5667 113.321 24.14C113.214 23.7 113.161 23.2133 113.161 22.68V18H111.761V16.28L113.281 16.18L113.561 13.5H115.481V16.18H117.981V18H115.481V22.68C115.481 23.8267 115.941 24.4 116.861 24.4C117.034 24.4 117.208 24.38 117.381 24.34C117.568 24.3 117.734 24.2467 117.881 24.18L118.281 25.88C118.014 25.9733 117.708 26.0533 117.361 26.12C117.028 26.2 116.668 26.24 116.281 26.24ZM121.648 26.24C120.781 26.24 120.081 25.98 119.548 25.46C119.015 24.9267 118.748 24.2267 118.748 23.36C118.748 22.84 118.855 22.38 119.068 21.98C119.295 21.5667 119.641 21.2133 120.108 20.92C120.588 20.6267 121.188 20.38 121.908 20.18C122.641 19.98 123.515 19.8267 124.528 19.72C124.515 19.4667 124.475 19.2267 124.408 19C124.355 18.76 124.255 18.5533 124.108 18.38C123.975 18.1933 123.795 18.0533 123.568 17.96C123.341 17.8533 123.061 17.8 122.728 17.8C122.248 17.8 121.775 17.8933 121.308 18.08C120.855 18.2667 120.408 18.4933 119.968 18.76L119.128 17.22C119.675 16.8733 120.288 16.5733 120.968 16.32C121.648 16.0667 122.381 15.94 123.168 15.94C124.395 15.94 125.308 16.3067 125.908 17.04C126.521 17.76 126.828 18.8067 126.828 20.18V26H124.928L124.768 24.92H124.688C124.248 25.2933 123.775 25.6067 123.268 25.86C122.775 26.1133 122.235 26.24 121.648 26.24ZM122.388 24.44C122.788 24.44 123.148 24.3467 123.468 24.16C123.801 23.9733 124.155 23.7067 124.528 23.36V21.16C123.861 21.24 123.301 21.3467 122.848 21.48C122.395 21.6133 122.028 21.7667 121.748 21.94C121.468 22.1 121.268 22.2867 121.148 22.5C121.028 22.7133 120.968 22.94 120.968 23.18C120.968 23.62 121.101 23.94 121.368 24.14C121.635 24.34 121.975 24.44 122.388 24.44ZM134.331 26.24C133.571 26.24 132.884 26.1333 132.271 25.92C131.671 25.6933 131.151 25.34 130.711 24.86C130.284 24.38 129.951 23.7667 129.711 23.02C129.484 22.26 129.371 21.34 129.371 20.26V12.92H131.691V20.44C131.691 21.1467 131.751 21.7467 131.871 22.24C132.004 22.72 132.184 23.1067 132.411 23.4C132.651 23.6933 132.931 23.9067 133.251 24.04C133.571 24.16 133.931 24.22 134.331 24.22C134.731 24.22 135.097 24.16 135.431 24.04C135.764 23.9067 136.051 23.6933 136.291 23.4C136.531 23.1067 136.717 22.72 136.851 22.24C136.984 21.7467 137.051 21.1467 137.051 20.44V12.92H139.271V20.26C139.271 21.34 139.157 22.26 138.931 23.02C138.704 23.7667 138.371 24.38 137.931 24.86C137.504 25.34 136.984 25.6933 136.371 25.92C135.771 26.1333 135.091 26.24 134.331 26.24ZM142.186 26V12.92H146.306C147.026 12.92 147.693 12.9867 148.306 13.12C148.933 13.2533 149.473 13.48 149.926 13.8C150.38 14.12 150.733 14.54 150.986 15.06C151.24 15.5667 151.366 16.2 151.366 16.96C151.366 17.68 151.24 18.3067 150.986 18.84C150.733 19.3733 150.38 19.82 149.926 20.18C149.486 20.5267 148.96 20.7867 148.346 20.96C147.746 21.12 147.093 21.2 146.386 21.2H144.506V26H142.186ZM144.506 19.34H146.206C148.126 19.34 149.086 18.5467 149.086 16.96C149.086 16.1333 148.833 15.5667 148.326 15.26C147.833 14.94 147.1 14.78 146.126 14.78H144.506V19.34Z" fill="white"/>
</g>
<defs>
<clipPath id="clip0_0_3628">
<rect width="162.886" height="37" fill="white"/>
</clipPath>
</defs>
</svg>
